# xmcd
#
# Track frame offsets: 
#        150
#        12933
#        25730
#        38988
#        52333
#        63447
#        83296
#        98484
#        111088
#        127096
#        143373
#        161175
#        175440
#        190763
#        204621
#        222817
#        236942
#        250110
#        267835
#        280996
#        293538
#        304841
#
# Disc length: 4606 seconds
#
# Revision: 3
# Processed by: cddbd v1.5.2PL0 Copyright (c) Steve Scherf et al.
# Submitted via: ExactAudioCopy v1.0b1
#
DISCID=3b11fc16
DTITLE=John Mayall - So Many Roads - An Anthology 164-1974 CD2
DYEAR=2010
DGENRE=Blues
TTITLE0=You Don't Love Me
TTITLE1=It's Over
TTITLE2=The Super-Natural
TTITLE3=Sitting In The Rain
TTITLE4=Ridin' On The L&N
TTITLE5=All My Life
TTITLE6=Double Trouble
TTITLE7=Suspicions (Part One)
TTITLE8=Oh Pretty Woman
TTITLE9=Snowy Wood
TTITLE10=Checkin' Up My Baby
TTITLE11=No More Tears
TTITLE12=Brand New Start
TTITLE13=Picture On The Wall
TTITLE14=Look In The Mirror
TTITLE15=No Reply
TTITLE16=Hartley Quits
TTITLE17=2401
TTITLE18=Walkin On Sunset
TTITLE19=Medicine Man
TTITLE20=Miss James
TTITLE21=Fly Tomorrow
EXTD=
EXTT0=
EXTT1=
EXTT2=
EXTT3=
EXTT4=
EXTT5=
EXTT6=
EXTT7=
EXTT8=
EXTT9=
EXTT10=
EXTT11=
EXTT12=
EXTT13=
EXTT14=
EXTT15=
EXTT16=
EXTT17=
EXTT18=
EXTT19=
EXTT20=
EXTT21=
PLAYORDER=
